HIERARCHY
ROOT Hips
{
    OFFSET   0.000000   0.000000   0.000000
    CHANNELS 6 Xposition Yposition Zposition Zrotation Xrotation Yrotation
    JOINT Chest
    {
        OFFSET   0.000000   8.007230   0.000000
        CHANNELS 3 Zrotation Xrotation Yrotation
        JOINT Chest2
        {
            OFFSET   0.000000  22.077100   0.000000
            CHANNELS 3 Zrotation Xrotation Yrotation
            JOINT Neck
            {
                OFFSET   0.000000  23.255100   0.000000
                CHANNELS 3 Zrotation Xrotation Yrotation
                JOINT Head
                {
                    OFFSET   0.000000  14.370100   1.956600
                    CHANNELS 3 Zrotation Xrotation Yrotation
                    End Site
                    {
                        OFFSET   0.000000  19.566000   0.000000
                    }
                }
            }
            JOINT LeftCollar
            {
                OFFSET   3.911900  19.017000  -0.467063
                CHANNELS 3 Zrotation Xrotation Yrotation
                JOINT LeftShoulder
                {
                    OFFSET  10.383700   0.000000   0.000000
                    CHANNELS 3 Zrotation Xrotation Yrotation
                    JOINT LeftElbow
                    {
                        OFFSET  26.662100   0.001193   0.000980
                        CHANNELS 3 Zrotation Xrotation Yrotation
                        JOINT LeftWrist
                        {
                            OFFSET  28.869000  -0.000059  -0.000082
                            CHANNELS 3 Zrotation Xrotation Yrotation
                            JOINT LeftFinger0
                            {
                                OFFSET   2.044650  -2.323450   3.252850
                                CHANNELS 3 Zrotation Xrotation Yrotation
                                JOINT LeftFinger01
                                {
                                    OFFSET   3.088130   0.000000   0.000000
                                    CHANNELS 3 Zrotation Xrotation Yrotation
                                    JOINT LeftFinger02
                                    {
                                        OFFSET   2.639460   0.000000   0.000000
                                        CHANNELS 3 Zrotation Xrotation Yrotation
                                        End Site
                                        {
                                            OFFSET   2.582190   0.000000   0.000000
                                        }
                                    }
                                }
                            }
                            JOINT LeftFinger1
                            {
                                OFFSET   8.364480   0.000000   3.252850
                                CHANNELS 3 Zrotation Xrotation Yrotation
                                JOINT LeftFinger11
                                {
                                    OFFSET   4.646930   0.000000   0.000000
                                    CHANNELS 3 Zrotation Xrotation Yrotation
                                    JOINT LeftFinger12
                                    {
                                        OFFSET   2.323470   0.000000   0.000000
                                        CHANNELS 3 Zrotation Xrotation Yrotation
                                        End Site
                                        {
                                            OFFSET   2.273050   0.000000   0.000000
                                        }
                                    }
                                }
                            }
                            JOINT LeftFinger2
                            {
                                OFFSET   8.364490   0.000016   1.078090
                                CHANNELS 3 Zrotation Xrotation Yrotation
                                JOINT LeftFinger21
                                {
                                    OFFSET   5.111610   0.000000   0.000000
                                    CHANNELS 3 Zrotation Xrotation Yrotation
                                    JOINT LeftFinger22
                                    {
                                        OFFSET   2.788150   0.000016   0.000000
                                        CHANNELS 3 Zrotation Xrotation Yrotation
                                        End Site
                                        {
                                            OFFSET   2.727660   0.000000   0.000000
                                        }
                                    }
                                }
                            }
                            JOINT LeftFinger3
                            {
                                OFFSET   7.899780   0.000015  -1.078090
                                CHANNELS 3 Zrotation Xrotation Yrotation
                                JOINT LeftFinger31
                                {
                                    OFFSET   4.646930   0.000000   0.000000
                                    CHANNELS 3 Zrotation Xrotation Yrotation
                                    JOINT LeftFinger32
                                    {
                                        OFFSET   2.323470   0.000000   0.000000
                                        CHANNELS 3 Zrotation Xrotation Yrotation
                                        End Site
                                        {
                                            OFFSET   2.273050   0.000000   0.000000
                                        }
                                    }
                                }
                            }
                            JOINT LeftFinger4
                            {
                                OFFSET   7.435090   0.000000  -3.252850
                                CHANNELS 3 Zrotation Xrotation Yrotation
                                JOINT LeftFinger41
                                {
                                    OFFSET   3.717550   0.000000   0.000000
                                    CHANNELS 3 Zrotation Xrotation Yrotation
                                    JOINT LeftFinger42
                                    {
                                        OFFSET   1.858770   0.000000   0.000000
                                        CHANNELS 3 Zrotation Xrotation Yrotation
                                        End Site
                                        {
                                            OFFSET   1.818440   0.000000   0.000000
                                        }
                                    }
                                }
                            }
                        }
                    }
                }
            }
            JOINT RightCollar
            {
                OFFSET  -3.911910  19.017000  -0.467062
                CHANNELS 3 Zrotation Xrotation Yrotation
                JOINT RightShoulder
                {
                    OFFSET -10.383700   0.000014   0.000000
                    CHANNELS 3 Zrotation Xrotation Yrotation
                    JOINT RightElbow
                    {
                        OFFSET -26.662100   0.001225   0.001091
                        CHANNELS 3 Zrotation Xrotation Yrotation
                        JOINT RightWrist
                        {
                            OFFSET -28.869000  -0.000020  -0.000085
                            CHANNELS 3 Zrotation Xrotation Yrotation
                            JOINT RightFinger0
                            {
                                OFFSET  -2.044650  -2.323490   3.252850
                                CHANNELS 3 Zrotation Xrotation Yrotation
                                JOINT RightFinger01
                                {
                                    OFFSET  -3.088130   0.000000   0.000000
                                    CHANNELS 3 Zrotation Xrotation Yrotation
                                    JOINT RightFinger02
                                    {
                                        OFFSET  -2.639460   0.000000   0.000000
                                        CHANNELS 3 Zrotation Xrotation Yrotation
                                        End Site
                                        {
                                            OFFSET  -2.582190   0.000000   0.000000
                                        }
                                    }
                                }
                            }
                            JOINT RightFinger1
                            {
                                OFFSET  -8.364480   0.000000   3.252850
                                CHANNELS 3 Zrotation Xrotation Yrotation
                                JOINT RightFinger11
                                {
                                    OFFSET  -4.646930   0.000000   0.000000
                                    CHANNELS 3 Zrotation Xrotation Yrotation
                                    JOINT RightFinger12
                                    {
                                        OFFSET  -2.323470   0.000000   0.000000
                                        CHANNELS 3 Zrotation Xrotation Yrotation
                                        End Site
                                        {
                                            OFFSET  -2.273050   0.000000   0.000000
                                        }
                                    }
                                }
                            }
                            JOINT RightFinger2
                            {
                                OFFSET  -8.364480   0.000000   1.078090
                                CHANNELS 3 Zrotation Xrotation Yrotation
                                JOINT RightFinger21
                                {
                                    OFFSET  -5.111620   0.000000   0.000000
                                    CHANNELS 3 Zrotation Xrotation Yrotation
                                    JOINT RightFinger22
                                    {
                                        OFFSET  -2.788160   0.000000   0.000000
                                        CHANNELS 3 Zrotation Xrotation Yrotation
                                        End Site
                                        {
                                            OFFSET  -2.727660   0.000000   0.000000
                                        }
                                    }
                                }
                            }
                            JOINT RightFinger3
                            {
                                OFFSET  -7.899780   0.000000  -1.078090
                                CHANNELS 3 Zrotation Xrotation Yrotation
                                JOINT RightFinger31
                                {
                                    OFFSET  -4.646930   0.000000   0.000000
                                    CHANNELS 3 Zrotation Xrotation Yrotation
                                    JOINT RightFinger32
                                    {
                                        OFFSET  -2.323470   0.000000   0.000000
                                        CHANNELS 3 Zrotation Xrotation Yrotation
                                        End Site
                                        {
                                            OFFSET  -2.273050   0.000000   0.000000
                                        }
                                    }
                                }
                            }
                            JOINT RightFinger4
                            {
                                OFFSET  -7.435090   0.000000  -3.252850
                                CHANNELS 3 Zrotation Xrotation Yrotation
                                JOINT RightFinger41
                                {
                                    OFFSET  -3.717550   0.000000   0.000000
                                    CHANNELS 3 Zrotation Xrotation Yrotation
                                    JOINT RightFinger42
                                    {
                                        OFFSET  -1.858760   0.000000   0.000000
                                        CHANNELS 3 Zrotation Xrotation Yrotation
                                        End Site
                                        {
                                            OFFSET  -1.818440   0.000000   0.000000
                                        }
                                    }
                                }
                            }
                        }
                    }
                }
            }
        }
    }
    JOINT LeftHip
    {
        OFFSET   9.783030   0.000000   0.000000
        CHANNELS 3 Zrotation Xrotation Yrotation
        JOINT LeftKnee
        {
            OFFSET   0.000063 -41.789100   0.000608
            CHANNELS 3 Zrotation Xrotation Yrotation
            JOINT LeftAnkle
            {
                OFFSET   0.000048 -41.133200  -0.000184
                CHANNELS 3 Zrotation Xrotation Yrotation
                JOINT LeftToe
                {
                    OFFSET   0.000000  -6.358960  14.674500
                    CHANNELS 3 Zrotation Xrotation Yrotation
                    End Site
                    {
                        OFFSET   0.000000   0.000000   3.913200
                    }
                }
            }
        }
    }
    JOINT RightHip
    {
        OFFSET  -9.783030   0.000000   0.000000
        CHANNELS 3 Zrotation Xrotation Yrotation
        JOINT RightKnee
        {
            OFFSET   0.000071 -41.789100   0.001239
            CHANNELS 3 Zrotation Xrotation Yrotation
            JOINT RightAnkle
            {
                OFFSET   0.000037 -41.133200  -0.000166
                CHANNELS 3 Zrotation Xrotation Yrotation
                JOINT RightToe
                {
                    OFFSET   0.000000  -6.358960  14.674500
                    CHANNELS 3 Zrotation Xrotation Yrotation
                    End Site
                    {
                        OFFSET   0.000000   0.000000   3.913200
                    }
                }
            }
        }
    }
}
MOTION
Frames: 4
Frame Time:   0.016667
  1.615250  89.262600  -1.342840   1.104840 -21.538600   2.694740  -2.902670  14.193100   3.904780  -7.173300  28.119800   9.001550   2.573520  -1.427350   0.064165   4.235440  -2.876630   2.749820  -4.843880  -8.728720   2.214530 -64.357400  23.244400  -6.212680  -4.317660  -8.173970 -24.791100  16.291700  -8.007240  11.652400  47.599200  41.517200 -81.906400 -24.740100  -0.010865   0.000663  -7.370050  -0.004204   0.000530 -39.911100   5.790730  -6.877750 -32.939500   0.001131   0.000509 -23.167400   0.005131   0.000432 -32.308200  -3.448810   5.434260 -48.707800   0.005158   0.000281 -32.439400   0.000098   0.003820 -30.387500  -3.264480   5.545070 -45.818300   0.003578   0.000899 -30.515000   0.000000   0.003384 -46.594400  -4.683220   4.414640 -70.162500  -0.000674  -0.005649 -46.728200   0.001338  -0.005996  10.529400  -1.693320   9.232280  47.307100  26.135200  23.435700  -2.079090 -13.324900 109.665000 -53.090900  -3.826220  38.005700 -41.297200  41.633800  84.619500  33.787000  -0.001230   0.000889  11.893500  -0.000612   0.007558  88.996200   4.998110   0.087456  74.854700   0.001262   0.002277  56.141000   0.002823  -0.000761  86.306400  -0.000639   0.001980  86.306300   0.002040   0.002459  64.729700   0.003221  -0.000179  88.996100  -4.994200  -0.084162  90.917400  -0.002569  -0.001060  68.188000  -0.000639   0.000712  88.984600 -10.000400  -0.176308 110.000000  -0.007233  -0.005012  79.999900  -0.000416   0.000492  -1.177710  17.938300   2.549580   0.023355   3.843670   8.334520  -3.879060  -3.513600   7.391570   0.000000   0.000000   0.000000  -1.871180  10.529100  -9.580590  -0.760535  21.573100 -10.037700  -8.109450  -8.550540   0.240401  -0.000000   0.000000   0.000000
  1.656640  89.246700  -1.322790   1.129410 -21.553600   2.727910  -2.896340  14.166600   3.791420  -7.125580  28.075700   8.758780   2.516920  -1.486350   0.064854   4.142560  -2.996430   3.057700  -4.846930  -8.624230   2.384770 -64.480800  23.283700  -6.100200  -4.386800  -8.126030 -24.605500  16.314300  -7.840100  11.631200  47.597700  41.543200 -81.959400 -24.755800  -0.010700   0.000719  -7.377890  -0.004054   0.000532 -39.950700   5.793170  -6.872710 -32.971800   0.001175   0.000725 -23.196700   0.004996   0.000463 -32.320000  -3.448650   5.433460 -48.725700   0.005064   0.000458 -32.451300  -0.000001   0.003770 -30.414300  -3.266050   5.544260 -45.858500   0.003431   0.001056 -30.541800  -0.000121   0.003410 -46.622900  -4.683120   4.413770 -70.205400  -0.000737  -0.005533 -46.756800   0.001271  -0.005954  10.713200  -1.585530   9.472200  47.738000  26.861700  21.954600  -2.123610 -12.576600 110.206000 -53.404800  -3.229220  40.183700 -40.494300  41.065700  83.469400  34.324300  -0.000875   0.000635  12.162100  -0.000485   0.007497  88.996200   4.998250   0.087826  74.624300   0.001188   0.002187  55.968200   0.002669  -0.000651  85.918800  -0.000727   0.001904  85.918700   0.001964   0.002435  64.439000   0.003118  -0.000218  88.995900  -4.994350  -0.084538  90.481500  -0.002474  -0.000985  67.861100  -0.000638   0.000327  88.984600 -10.000200  -0.176306 110.000000  -0.007245  -0.005262  79.999900  -0.000458   0.000452  -1.214740  17.939600   2.493590   0.001164   3.913380   8.244870  -3.804600  -3.566770   7.503160   0.000000   0.000000   0.000000  -1.902490  10.511400  -9.518120  -0.723680  21.680700 -10.098600  -8.126100  -8.581990   0.209201  -0.000000   0.000000   0.000000
  1.691970  89.230900  -1.303050   1.138820 -21.580300   2.739800  -2.884570  14.140900   3.674510  -7.065800  28.033700   8.507280   2.460570  -1.533490   0.065076   4.050280  -3.092370   3.372850  -4.836290  -8.536530   2.571410 -64.601200  23.376400  -5.975650  -4.472400  -8.124150 -24.416400  16.333300  -7.672290  11.605200  47.603200  41.570700 -82.018900 -24.763300  -0.010530   0.000770  -7.381630  -0.003901   0.000537 -39.985300   5.800190  -6.870990 -33.000400   0.001224   0.000914 -23.222600   0.004862   0.000501 -32.328600  -3.447540   5.427870 -48.738300   0.004973   0.000637 -32.459700  -0.000101   0.003730 -30.438000  -3.266310   5.538540 -45.894100   0.003282   0.001217 -30.565500  -0.000240   0.003442 -46.642100  -4.682450   4.407840 -70.233700  -0.000801  -0.005413 -46.775700   0.001202  -0.005907  10.904700  -1.511800   9.723570  48.217200  27.400700  20.543700  -2.164600 -11.742400 110.710000 -53.548200  -3.041250  41.784400 -39.855200  40.652100  82.558100  34.744200  -0.000631   0.000455  12.372100  -0.000345   0.007432  88.996100   4.998380   0.088191  74.467200   0.001121   0.002104  55.850400   0.002522  -0.000538  85.639500  -0.000821   0.001833  85.639500   0.001894   0.002415  64.229600   0.003021  -0.000289  88.995600  -4.994500  -0.084949  90.139100  -0.002372  -0.000907  67.604300  -0.000627   0.000138  88.984600  -9.999980  -0.176304 110.000000  -0.007253  -0.005513  79.999900  -0.000497   0.000412  -1.227780  17.944700   2.442970  -0.023440   3.975020   8.193250  -3.726490  -3.618120   7.611470  -0.000000   0.000000  -0.000000  -1.926840  10.495300  -9.414860  -0.683218  21.778800 -10.183500  -8.136160  -8.595650   0.196418  -0.000000   0.000000  -0.000000
  1.712930  89.219400  -1.277170   1.108110 -21.611300   2.697790  -2.873960  14.114300   3.582160  -7.012800  27.988100   8.307240   2.412220  -1.569290   0.065492   3.971260  -3.165360   3.639550  -4.820020  -8.452100   2.716850 -64.680400  23.527800  -5.852490  -4.557000  -8.143420 -24.222700  16.330800  -7.505950  11.584400  47.635900  41.606600 -82.088900 -24.760100  -0.010342   0.000811  -7.380050  -0.003752   0.000549 -40.001900   5.810550  -6.877940 -33.014800   0.001278   0.001122 -23.235700   0.004730   0.000545 -32.321800  -3.438340   5.413260 -48.726700   0.004887   0.000815 -32.452000  -0.000201   0.003700 -30.449200  -3.259370   5.522800 -45.911200   0.003131   0.001378 -30.576900  -0.000350   0.003480 -46.643200  -4.671410   4.394920 -70.233100  -0.000863  -0.005287 -46.775300   0.001131  -0.005858  11.083100  -1.436100   9.904050  48.644200  27.859500  19.308800  -2.162080 -10.873400 111.183000 -53.738500  -3.149260  42.983700 -39.608800  40.543800  82.206800  34.929600  -0.000454   0.000371  12.464800  -0.000181   0.007379  88.996100   4.998500   0.088542  74.490300   0.001065   0.002020  55.867700   0.002384  -0.000423  85.621200  -0.000916   0.001761  85.621300   0.001827   0.002396  64.215900   0.002932  -0.000407  88.995300  -4.994660  -0.085395  90.095200  -0.002264  -0.000837  67.571400  -0.000602   0.000088  88.984600  -9.999750  -0.176311 110.000000  -0.007264  -0.005762  79.999900  -0.000536   0.000372  -1.210260  17.983100   2.406610  -0.053183   3.999130   8.195500  -3.655740  -3.654980   7.693160   0.000000   0.000000   0.000000  -1.909930  10.509400  -9.327210  -0.666237  21.842000 -10.232500  -8.137700  -8.611450   0.196669   0.000000   0.000000   0.000000
